HIERARCHY
ROOT Hips
{
  OFFSET -31.5692 30.0904 122.763
  CHANNELS 6 Xposition Yposition Zposition Zrotation Xrotation Yrotation
  JOINT LeftUpLeg
  {
    OFFSET 8.64259 1.95398 -2.38835
    CHANNELS 3 Zrotation Xrotation Yrotation
    JOINT LeftLeg
    {
      OFFSET 43.7702 0 0
      CHANNELS 3 Zrotation Xrotation Yrotation
      JOINT LeftFoot
      {
        OFFSET 40.6238 0 0
        CHANNELS 3 Zrotation Xrotation Yrotation
        JOINT LeftToeBase
        {
          OFFSET 12.7242 0 0
          CHANNELS 3 Zrotation Xrotation Yrotation
          End Site
          {
            OFFSET 0 0 0
          }
        }
      }
    }
  }
  JOINT RightUpLeg
  {
    OFFSET -8.2249 1.95398 -2.59336
    CHANNELS 3 Zrotation Xrotation Yrotation
    JOINT RightLeg
    {
      OFFSET 43.5653 0 0
      CHANNELS 3 Zrotation Xrotation Yrotation
      JOINT RightFoot
      {
        OFFSET 40.6238 0 0
        CHANNELS 3 Zrotation Xrotation Yrotation
        JOINT RightToeBase
        {
          OFFSET 12.7242 0 0
          CHANNELS 3 Zrotation Xrotation Yrotation
          End Site
          {
            OFFSET 0 0 0
          }
        }
      }
    }
  }
  JOINT Spine
  {
    OFFSET 0.165834 0.87714 6.61349
    CHANNELS 3 Zrotation Xrotation Yrotation
    JOINT Spine1
    {
      OFFSET 7.38963 1.71661e-005 0
      CHANNELS 3 Zrotation Xrotation Yrotation
      JOINT Spine2
      {
        OFFSET 11.9445 1.14441e-005 0
        CHANNELS 3 Zrotation Xrotation Yrotation
        JOINT Spine3
        {
          OFFSET 14.7254 4.19617e-005 0
          CHANNELS 3 Zrotation Xrotation Yrotation
          JOINT Spine4
          {
            OFFSET 10.9679 0 0
            CHANNELS 3 Zrotation Xrotation Yrotation
            JOINT RightShoulder
            {
              OFFSET 2.46616 -1.6653 3.69651
              CHANNELS 3 Zrotation Xrotation Yrotation
              JOINT RightArm
              {
                OFFSET 13.0012 0 0
                CHANNELS 3 Zrotation Xrotation Yrotation
                JOINT RightForeArm
                {
                  OFFSET 28.7848 1.62311e-005 0
                  CHANNELS 3 Zrotation Xrotation Yrotation
                  JOINT RightHand
                  {
                    OFFSET 26.5688 1.62095e-005 0
                    CHANNELS 3 Zrotation Xrotation Yrotation
                    End Site
                    {
                      OFFSET 0 0 0
                    }
                  }
                }
              }
            }
            JOINT LeftShoulder
            {
              OFFSET 2.38034 -1.29275 -3.7523
              CHANNELS 3 Zrotation Xrotation Yrotation
              JOINT LeftArm
              {
                OFFSET 16.3182 6.07031e-005 0
                CHANNELS 3 Zrotation Xrotation Yrotation
                JOINT LeftForeArm
                {
                  OFFSET 27.0901 0 0
                  CHANNELS 3 Zrotation Xrotation Yrotation
                  JOINT LeftHand
                  {
                    OFFSET 24.5451 1.51738e-005 0
                    CHANNELS 3 Zrotation Xrotation Yrotation
                    End Site
                    {
                      OFFSET 0 0 0
                    }
                  }
                }
              }
            }
            JOINT Neck
            {
              OFFSET 5.0226 -0.0266342 0
              CHANNELS 3 Zrotation Xrotation Yrotation
              JOINT Head
              {
                OFFSET 6.69364 2.86102e-005 0
                CHANNELS 3 Zrotation Xrotation Yrotation
                End Site
                {
                  OFFSET 0 0 0
                }
              }
            }
          }
        }
      }
    }
  }
}
MOTION
Frames:	10
Frame Time:	0.0416667
-96.1662 91.5735 38.628 89.1479 -44.4211 85.6624 -166.049 21.8371 112.128 -34.5611 8.08002 -0.25487 61.5994 1.01378 -1.86006 22.4381 -7.8305 11.2377 164.518 31.4648 71.4376 -48.3783 -21.2286 0.589203 71.4485 -7.29972 -0.214579 34.9113 -2.83719 0.0452088 0.319278 8.2665 -90.1077 10.3416 0.586842 -0.264953 -1.32924 0.574593 -0.290536 -23.8654 0.639335 -0.0763262 -3.85278 0.63933 -0.0763394 93.3293 -25.0188 -101.64 36.4322 -1.0281 5.56992 0.197319 -18.3085 -22.2725 -25.2953 1.40926 -15.2162 -83.7398 -47.6578 87.8831 -23.7759 7.15818 3.27542 0.331501 5.89488 -11.7856 5.89563 -1.48765 -25.3216 -19.3656 17.8159 13.5432 -10.5719 17.7902 11.7865 
-90.4412 89.6294 31.8048 89.5423 -41.6117 88.782 -163.133 26.8491 112.108 -44.3915 7.95874 -2.22423 70.7383 5.92403 -5.06592 35.4332 -1.52251 16.7528 164.341 30.1319 68.3288 -44.4449 -20.5002 0.0438319 66.9508 -3.90133 1.36561 37.3309 -3.7745 -1.42649 0.415093 8.30031 -90.3932 10.2747 0.647405 -0.836567 -1.39635 0.609951 -0.864254 -23.9315 0.868878 -0.603323 -3.91882 0.868882 -0.603329 93.3322 -25.5354 -101.468 34.6164 0.351043 2.65579 -1.64938 -17.8093 -23.893 -24.258 1.57268 -16.4599 -83.3731 -46.4528 88.3214 -26.0525 7.35889 5.63889 0.876755 8.51737 -11.2731 4.64898 -1.16901 -25.2021 -18.8277 17.035 9.25889 -12.0638 16.5901 13.0578 
-83.5288 90.4206 23.9778 91.4161 -35.2753 91.1148 -161.907 28.6372 107.22 -51.5078 11.3824 -3.5702 79.5097 11.83 -3.16543 29.8475 -3.2763 11.2943 165.857 24.1766 64.3426 -37.5192 -19.8165 -3.95752 57.5157 2.35946 2.08901 29.8331 -0.440218 -0.71862 0.255725 8.39762 -90.517 10.0788 0.274144 -1.0498 -1.59255 0.227683 -1.06085 -24.1252 0.576968 -0.918889 -4.11251 0.576983 -0.918889 94.5068 -26.555 -98.6274 33.3156 2.89378 2.2476 -4.67318 -17.9578 -27.0456 -24.6901 1.84877 -17.7754 -84.2964 -44.2929 86.5835 -26.9769 9.12762 6.10571 -0.210217 10.584 -9.27112 4.77205 -0.945303 -22.5284 -19.0976 14.5643 2.24487 -11.6442 13.8836 14.2639 
-77.4889 91.8666 16.3898 92.0499 -30.6256 91.1561 -162.689 25.8686 100.317 -52.5068 10.9599 -4.18399 83.7402 14.4517 -3.40062 26.8645 -4.9425 10.8984 171.035 23.7301 63.9031 -44.1782 -21.025 -9.28515 62.4571 -0.870093 -0.821104 17.1538 4.73609 2.49747 0.165417 8.44261 -90.4655 9.98837 0.11821 -0.933911 -1.68292 0.0770182 -0.938217 -24.2158 0.393409 -0.855223 -4.20315 0.393424 -0.855214 95.1205 -26.404 -97.3564 33.3508 3.24334 4.79844 -5.12679 -19.3438 -27.2463 -26.2448 1.90027 -17.5631 -85.3702 -44.5155 84.8886 -21.4466 11.6459 1.8193 -2.82497 11.1306 -5.64743 3.53893 -0.586069 -20.5668 -20.8279 12.1562 0.26643 -10.2371 11.6921 12.5007 
-73.171 93.8982 10.4236 92.5935 -29.6016 91.1222 -164.402 21.0407 94.8627 -48.4329 7.1759 -4.91286 84.5701 15.0663 -2.42186 22.984 -6.40812 8.76517 173.644 28.3765 69.4978 -49.8256 -14.5943 -7.14603 67.3116 -3.95625 -1.16088 18.5122 3.96811 2.93161 0.0043903 8.67058 -90.3543 9.53174 -0.150899 -0.690857 -2.13937 -0.181151 -0.683556 -24.6731 0.0636963 -0.704277 -4.66041 0.0637084 -0.704272 95.2354 -25.869 -97.2466 34.249 1.64145 5.71687 -3.3456 -21.8054 -24.3742 -24.4656 1.39469 -16.4257 -85.2358 -44.0168 85.0285 -20.8582 9.02365 -0.871377 -1.58646 4.83476 -7.11995 6.38561 -1.06599 -18.9798 -21.3711 11.6047 1.94663 -9.45856 11.3776 10.8356 
-69.4627 96.3049 6.02112 91.1804 -30.2384 91.1485 -166.749 17.0336 91.2346 -41.2242 2.88431 -5.58228 83.3751 14.2305 -1.42862 19.3543 -8.12515 7.75855 177.628 33.7981 80.8631 -51.5762 -15.5852 -5.02534 67.278 -4.08619 -1.67742 21.2275 2.44098 4.00666 -0.185631 8.67071 -90.3027 9.53081 -0.506486 -0.561533 -2.14015 -0.530723 -0.538706 -24.6746 -0.314311 -0.687787 -4.66194 -0.314319 -0.687792 95.329 -25.756 -97.0728 35.8906 0.520393 7.50638 -1.20545 -22.1104 -21.7163 -24.0764 1.07673 -14.9222 -85.407 -43.0072 84.5924 -21.3148 6.88121 -3.31871 -1.17956 1.95644 -8.04404 5.11589 -1.2772 -23.3878 -22.4754 11.9959 1.94902 -10.1321 11.698 11.8631 
-65.2715 97.3552 2.45623 89.9801 -28.5213 90.2255 -168.469 13.3768 87.7301 -35.6622 2.1832 -6.57579 82.7313 13.7885 -0.836305 17.465 -9.20154 7.61822 179.801 37.4509 91.6084 -48.6006 -18.5408 -2.86205 65.4033 -2.73648 -1.14459 21.3574 2.85305 2.39944 -0.814753 8.64933 -90.147 9.57449 -1.69066 -0.161602 -2.09539 -1.69613 -0.0870211 -24.6381 -1.5639 -0.662355 -4.62542 -1.56391 -0.662368 96.0024 -25.1161 -95.7579 38.6539 0.124961 9.33442 0.41804 -21.4563 -19.5115 -24.544 0.933139 -13.7697 -85.7387 -42.088 83.8948 -20.7487 4.63323 -4.97286 0.30342 3.37922 -11.1731 6.12126 -1.84624 -28.4109 -22.8898 12.5779 1.76437 -10.3385 12.1877 13.4074 
-60.4036 96.7123 -1.04067 89.3677 -24.3295 88.0668 -169.589 10.3791 83.4897 -33.727 4.2528 -7.97603 84.3872 15.205 -0.111826 13.5604 -9.88222 4.48655 176.602 37.144 99.5096 -39.6921 -12.2257 2.61125 61.6562 0.460474 3.18598 27.6684 1.09819 -2.80925 -1.50469 8.62633 -89.9792 9.62691 -2.99035 0.272854 -2.04068 -2.97546 0.404312 -24.6025 -2.93402 -0.639285 -4.58989 -2.93399 -0.639276 97.3475 -25.0049 -92.8128 40.7826 0.827053 12.0099 1.66777 -17.8503 -17.4596 -22.9795 1.00279 -13.9128 -86.3174 -41.5416 82.8388 -19.4288 2.99972 -10.4851 1.39874 5.55612 -12.522 6.56934 -2.19281 -31.5726 -22.2785 12.517 1.27537 -11.1295 11.9425 14.1388 
-54.2986 94.2142 -4.66388 89.4531 -20.8023 86.6486 -169.386 7.32601 80.0693 -36.0075 6.92519 -10.1429 89.8465 18.8655 -0.713717 11.5266 -10.1782 2.86197 173.94 31.9531 104.82 -26.3321 -1.4837 7.3464 62.307 -0.420145 0.597354 28.6247 -0.427923 2.4734 -1.86268 8.56983 -89.8946 9.74556 -3.66551 0.498678 -1.92037 -3.63998 0.659719 -24.4965 -3.64566 -0.627517 -4.48381 -3.64567 -0.627529 98.0568 -25.0336 -91.2356 42.8374 1.53685 14.5751 2.65221 -16.8344 -15.0183 -22.5868 0.687657 -12.0303 -86.915 -41.0405 81.7465 -17.7397 2.87946 -18.0451 2.6741 7.80576 -12.472 7.42631 -2.58488 -33.46 -22.5969 11.9182 -0.432766 -11.474 11.1749 14.5221 
-47.4713 91.932 -9.01657 88.3157 -16.9896 85.9887 -171.028 3.01587 76.0846 -34.6604 6.21875 -10.2496 94.3636 20.7317 -3.97475 8.71514 -10.8319 1.23868 175.105 32.4931 105.32 -25.6106 2.63709 7.20837 62.2969 0.0759327 2.34799 28.4038 -0.334483 2.53379 -2.19633 8.38954 -90.1064 10.107 -4.42512 0.1611 -1.55643 -4.41369 0.356072 -24.1494 -4.26861 -1.17878 -4.13679 -4.26861 -1.17879 98.5444 -25.0534 -90.1498 43.5816 1.1059 14.3689 3.456 -16.5526 -13.7964 -22.6544 0.546602 -11.1558 -87.596 -41.2064 80.644 -15.2165 4.26156 -25.1552 2.99907 11.2704 -12.5996 7.38379 -2.47271 -32.8038 -21.5598 11.3175 -1.55471 -12.4607 10.3431 14.8743 
